{
  "accessors": [
    {
      "bufferView": 1,
      "componentType": 5126,
      "count": 65532,
      "max": [
        0.07924462109804153,
        0.10547258704900742,
        -0.04193652421236038
      ],
      "min": [
        -0.05914933979511261,
        -0.11111748963594437,
        -0.16097427904605865
      ],
      "type": "VEC3"
    },
    {
      "bufferView": 1,
      "byteOffset": 786384,
      "componentType": 5126,
      "count": 65532,
      "max": [
        0.9989436864852905,
        0.9995900988578796,
        1.0
      ],
      "min": [
        -0.9992474913597107,
        -0.9999822974205017,
        -1.0
      ],
      "type": "VEC3"
    },
    {
      "bufferView": 0,
      "componentType": 5125,
      "count": 318519,
      "type": "SCALAR"
    },
    {
      "bufferView": 1,
      "byteOffset": 1572768,
      "componentType": 5126,
      "count": 65532,
      "max": [
        0.07720564305782318,
        0.094317726790905,
        -0.0449514240026474
      ],
      "min": [
        -0.053059764206409454,
        -0.11266252398490906,
        -0.16097426414489746
      ],
      "type": "VEC3"
    },
    {
      "bufferView": 1,
      "byteOffset": 2359152,
      "componentType": 5126,
      "count": 65532,
      "max": [
        0.9999977946281433,
        0.9999499320983887,
        0.9999414086341858
      ],
      "min": [
        -0.9999325275421143,
        -0.9999344944953918,
        -0.9999753832817078
      ],
      "type": "VEC3"
    },
    {
      "bufferView": 0,
      "byteOffset": 1274076,
      "componentType": 5125,
      "count": 327813,
      "type": "SCALAR"
    },
    {
      "bufferView": 1,
      "byteOffset": 3145536,
      "componentType": 5126,
      "count": 65532,
      "max": [
        0.1343441605567932,
        0.10564831644296646,
        -0.042392224073410034
      ],
      "min": [
        -0.050581350922584534,
        -0.11369843035936356,
        -0.15622487664222717
      ],
      "type": "VEC3"
    },
    {
      "bufferView": 1,
      "byteOffset": 3931920,
      "componentType": 5126,
      "count": 65532,
      "max": [
        0.9999948143959045,
        0.9996190667152405,
        0.9999825954437256
      ],
      "min": [
        -0.9999918937683105,
        -0.9999065399169922,
        -0.9999971985816956
      ],
      "type": "VEC3"
    },
    {
      "bufferView": 0,
      "byteOffset": 2585328,
      "componentType": 5125,
      "count": 290184,
      "type": "SCALAR"
    },
    {
      "bufferView": 1,
      "byteOffset": 4718304,
      "componentType": 5126,
      "count": 65532,
      "max": [
        0.1276153326034546,
        0.09352894872426987,
        -0.04572766274213791
      ],
      "min": [
        -0.04513099044561386,
        -0.10803377628326416,
        -0.13477331399917603
      ],
      "type": "VEC3"
    },
    {
      "bufferView": 1,
      "byteOffset": 5504688,
      "componentType": 5126,
      "count": 65532,
      "max": [
        0.9999867081642151,
        0.9996232986450195,
        0.9999409317970276
      ],
      "min": [
        -1.0,
        -0.9969583749771118,
        -0.9999971389770508
      ],
      "type": "VEC3"
    },
    {
      "bufferView": 0,
      "byteOffset": 3746064,
      "componentType": 5125,
      "count": 301728,
      "type": "SCALAR"
    },
    {
      "bufferView": 1,
      "byteOffset": 6291072,
      "componentType": 5126,
      "count": 65532,
      "max": [
        0.125043123960495,
        0.07544150203466415,
        -0.04212499037384987
      ],
      "min": [
        -0.032844893634319305,
        -0.0992012619972229,
        -0.1609639674425125
      ],
      "type": "VEC3"
    },
    {
      "bufferView": 1,
      "byteOffset": 7077456,
      "componentType": 5126,
      "count": 65532,
      "max": [
        0.999993085861206,
        0.999976634979248,
        0.9999653697013855
      ],
      "min": [
        -0.9999760985374451,
        -0.9999851584434509,
        -0.9999898672103882
      ],
      "type": "VEC3"
    },
    {
      "bufferView": 0,
      "byteOffset": 4952976,
      "componentType": 5125,
      "count": 293931,
      "type": "SCALAR"
    },
    {
      "bufferView": 1,
      "byteOffset": 7863840,
      "componentType": 5126,
      "count": 65532,
      "max": [
        0.066700279712677,
        0.09401499480009079,
        -0.04014633595943451
      ],
      "min": [
        -0.05465639382600784,
        -0.11413741111755371,
        -0.1609725058078766
      ],
      "type": "VEC3"
    },
    {
      "bufferView": 1,
      "byteOffset": 8650224,
      "componentType": 5126,
      "count": 65532,
      "max": [
        0.9621284604072571,
        0.9999870657920837,
        0.9999983906745911
      ],
      "min": [
        -0.9999978542327881,
        -0.99961918592453,
        -0.9995560050010681
      ],
      "type": "VEC3"
    },
    {
      "bufferView": 0,
      "byteOffset": 6128700,
      "componentType": 5125,
      "count": 354801,
      "type": "SCALAR"
    },
    {
      "bufferView": 1,
      "byteOffset": 9436608,
      "componentType": 5126,
      "count": 65532,
      "max": [
        0.13369965553283691,
        0.10598260909318924,
        -0.04350695386528969
      ],
      "min": [
        -0.04430009424686432,
        -0.11466174572706223,
        -0.1380780041217804
      ],
      "type": "VEC3"
    },
    {
      "bufferView": 1,
      "byteOffset": 10222992,
      "componentType": 5126,
      "count": 65532,
      "max": [
        0.9999997019767761,
        0.9952040314674377,
        0.9999971985816956
      ],
      "min": [
        -0.99992835521698,
        -0.9999809265136719,
        -0.9993790984153748
      ],
      "type": "VEC3"
    },
    {
      "bufferView": 0,
      "byteOffset": 7547904,
      "componentType": 5125,
      "count": 339297,
      "type": "SCALAR"
    },
    {
      "bufferView": 1,
      "byteOffset": 11009376,
      "componentType": 5126,
      "count": 65532,
      "max": [
        0.1275738626718521,
        0.08677967637777328,
        -0.04015861824154854
      ],
      "min": [
        -0.0410928800702095,
        -0.09493119269609451,
        -0.12047024071216583
      ],
      "type": "VEC3"
    },
    {
      "bufferView": 1,
      "byteOffset": 11795760,
      "componentType": 5126,
      "count": 65532,
      "max": [
        0.9999643564224243,
        0.999976634979248,
        0.99998939037323
      ],
      "min": [
        -0.9999827146530151,
        -0.9996160268783569,
        -0.9997168183326721
      ],
      "type": "VEC3"
    },
    {
      "bufferView": 0,
      "byteOffset": 8905092,
      "componentType": 5125,
      "count": 318999,
      "type": "SCALAR"
    },
    {
      "bufferView": 1,
      "byteOffset": 12582144,
      "componentType": 5126,
      "count": 65009,
      "max": [
        0.1336347460746765,
        0.10598260909318924,
        -0.04193652421236038
      ],
      "min": [
        -0.0588170662522316,
        -0.11462347954511642,
        -0.16097426414489746
      ],
      "type": "VEC3"
    },
    {
      "bufferView": 1,
      "byteOffset": 13362252,
      "componentType": 5126,
      "count": 65009,
      "max": [
        0.9999018311500549,
        0.9964613318443298,
        0.9999971985816956
      ],
      "min": [
        -0.9999974966049194,
        -0.9999822974205017,
        -0.9994857311248779
      ],
      "type": "VEC3"
    },
    {
      "bufferView": 0,
      "byteOffset": 10181088,
      "componentType": 5125,
      "count": 297483,
      "type": "SCALAR"
    }
  ],
  "asset": {
    "extras": {
      "author": "The British Museum (https://sketchfab.com/britishmuseum)",
      "license": "CC-BY-NC-SA-4.0 (http://creativecommons.org/licenses/by-nc-sa/4.0/)",
      "source": "https://sketchfab.com/3d-models/crying-cow-sculpture-a22bcd457cce4ff58bfc21de4f0fba02",
      "title": "Crying Cow Sculpture"
    },
    "generator": "Sketchfab-12.64.0",
    "version": "2.0"
  },
  "bufferViews": [
    {
      "buffer": 0,
      "byteLength": 11371020,
      "name": "floatBufferViews",
      "target": 34963
    },
    {
      "buffer": 0,
      "byteLength": 14142360,
      "byteOffset": 11371020,
      "byteStride": 12,
      "name": "floatBufferViews",
      "target": 34962
    }
  ],
  "buffers": [
    {
      "byteLength": 25513380,
      "uri": "scene.bin"
    }
  ],
  "materials": [
    {
      "doubleSided": true,
      "name": "Scene_-_Root",
      "pbrMetallicRoughness": {
        "metallicFactor": 0.0,
        "roughnessFactor": 0.6
      }
    }
  ],
  "meshes": [
    {
      "name": "Object_0",
      "primitives": [
        {
          "attributes": {
            "NORMAL": 1,
            "POSITION": 0
          },
          "indices": 2,
          "material": 0,
          "mode": 4
        }
      ]
    },
    {
      "name": "Object_1",
      "primitives": [
        {
          "attributes": {
            "NORMAL": 4,
            "POSITION": 3
          },
          "indices": 5,
          "material": 0,
          "mode": 4
        }
      ]
    },
    {
      "name": "Object_2",
      "primitives": [
        {
          "attributes": {
            "NORMAL": 7,
            "POSITION": 6
          },
          "indices": 8,
          "material": 0,
          "mode": 4
        }
      ]
    },
    {
      "name": "Object_3",
      "primitives": [
        {
          "attributes": {
            "NORMAL": 10,
            "POSITION": 9
          },
          "indices": 11,
          "material": 0,
          "mode": 4
        }
      ]
    },
    {
      "name": "Object_4",
      "primitives": [
        {
          "attributes": {
            "NORMAL": 13,
            "POSITION": 12
          },
          "indices": 14,
          "material": 0,
          "mode": 4
        }
      ]
    },
    {
      "name": "Object_5",
      "primitives": [
        {
          "attributes": {
            "NORMAL": 16,
            "POSITION": 15
          },
          "indices": 17,
          "material": 0,
          "mode": 4
        }
      ]
    },
    {
      "name": "Object_6",
      "primitives": [
        {
          "attributes": {
            "NORMAL": 19,
            "POSITION": 18
          },
          "indices": 20,
          "material": 0,
          "mode": 4
        }
      ]
    },
    {
      "name": "Object_7",
      "primitives": [
        {
          "attributes": {
            "NORMAL": 22,
            "POSITION": 21
          },
          "indices": 23,
          "material": 0,
          "mode": 4
        }
      ]
    },
    {
      "name": "Object_8",
      "primitives": [
        {
          "attributes": {
            "NORMAL": 25,
            "POSITION": 24
          },
          "indices": 26,
          "material": 0,
          "mode": 4
        }
      ]
    }
  ],
  "nodes": [
    {
      "children": [
        1
      ],
      "matrix": [
        1.0,
        0.0,
        0.0,
        0.0,
        0.0,
        2.220446049250313e-16,
        -1.0,
        0.0,
        0.0,
        1.0,
        2.220446049250313e-16,
        0.0,
        0.0,
        0.0,
        0.0,
        1.0
      ],
      "name": "Sketchfab_model"
    },
    {
      "children": [
        2,
        3,
        4,
        5,
        6,
        7,
        8,
        9,
        10
      ],
      "name": "cow-sculpt2-stand-hollow-applied2-Cube.stl.cleaner.materialmerger.gles"
    },
    {
      "mesh": 0,
      "name": "Object_2"
    },
    {
      "mesh": 1,
      "name": "Object_3"
    },
    {
      "mesh": 2,
      "name": "Object_4"
    },
    {
      "mesh": 3,
      "name": "Object_5"
    },
    {
      "mesh": 4,
      "name": "Object_6"
    },
    {
      "mesh": 5,
      "name": "Object_7"
    },
    {
      "mesh": 6,
      "name": "Object_8"
    },
    {
      "mesh": 7,
      "name": "Object_9"
    },
    {
      "mesh": 8,
      "name": "Object_10"
    }
  ],
  "scene": 0,
  "scenes": [
    {
      "name": "Sketchfab_Scene",
      "nodes": [
        0
      ]
    }
  ]
}
