{
  "accessors": [
    {
      "bufferView": 2,
      "componentType": 5126,
      "count": 65532,
      "max": [
        1.7117600440979004,
        6.302540302276611,
        2.2272300720214844
      ],
      "min": [
        -3.900958299636841,
        4.242070198059082,
        -2.833430051803589
      ],
      "type": "VEC3"
    },
    {
      "bufferView": 2,
      "byteOffset": 786384,
      "componentType": 5126,
      "count": 65532,
      "max": [
        0.9999713897705078,
        0.999995231628418,
        0.999930739402771
      ],
      "min": [
        -0.9999998807907104,
        -0.9999871850013733,
        -0.9999628067016602
      ],
      "type": "VEC3"
    },
    {
      "bufferView": 3,
      "componentType": 5126,
      "count": 65532,
      "max": [
        0.9999115467071533,
        0.9999333024024963,
        0.9998777508735657,
        1.0
      ],
      "min": [
        -0.9999595880508423,
        -0.9997844696044922,
        -0.9998851418495178,
        -1.0
      ],
      "type": "VEC4"
    },
    {
      "bufferView": 1,
      "componentType": 5126,
      "count": 65532,
      "max": [
        0.9953290820121765,
        0.9978893399238586
      ],
      "min": [
        0.0021106379572302103,
        0.0021106379572302103
      ],
      "type": "VEC2"
    },
    {
      "bufferView": 0,
      "componentType": 5125,
      "count": 327171,
      "type": "SCALAR"
    },
    {
      "bufferView": 2,
      "byteOffset": 1572768,
      "componentType": 5126,
      "count": 65532,
      "max": [
        2.6332199573516846,
        5.039050102233887,
        0.64103102684021
      ],
      "min": [
        -1.360610008239746,
        1.811750054359436,
        -1.036139965057373
      ],
      "type": "VEC3"
    },
    {
      "bufferView": 2,
      "byteOffset": 2359152,
      "componentType": 5126,
      "count": 65532,
      "max": [
        0.9999509453773499,
        0.9999849796295166,
        0.9999986886978149
      ],
      "min": [
        -0.9998976588249207,
        -0.9997844696044922,
        -0.9999952912330627
      ],
      "type": "VEC3"
    },
    {
      "bufferView": 3,
      "byteOffset": 1048512,
      "componentType": 5126,
      "count": 65532,
      "max": [
        0.9976634979248047,
        0.9999060034751892,
        0.9999805092811584,
        1.0
      ],
      "min": [
        -0.9998876452445984,
        -0.9999931454658508,
        -0.9999940991401672,
        -1.0
      ],
      "type": "VEC4"
    },
    {
      "bufferView": 1,
      "byteOffset": 524256,
      "componentType": 5126,
      "count": 65532,
      "max": [
        0.9753744006156921,
        0.94557124376297
      ],
      "min": [
        0.009577007964253426,
        0.0021106379572302103
      ],
      "type": "VEC2"
    },
    {
      "bufferView": 0,
      "byteOffset": 1308684,
      "componentType": 5125,
      "count": 339873,
      "type": "SCALAR"
    },
    {
      "bufferView": 2,
      "byteOffset": 3145536,
      "componentType": 5126,
      "count": 65532,
      "max": [
        1.0850900411605835,
        2.448349952697754,
        1.0434900522232056
      ],
      "min": [
        -0.8515660166740417,
        -0.287104994058609,
        -0.6348170042037964
      ],
      "type": "VEC3"
    },
    {
      "bufferView": 2,
      "byteOffset": 3931920,
      "componentType": 5126,
      "count": 65532,
      "max": [
        0.9999802112579346,
        1.0,
        0.9999971985816956
      ],
      "min": [
        -0.9999995827674866,
        -0.9999614953994751,
        -0.9999977946281433
      ],
      "type": "VEC3"
    },
    {
      "bufferView": 3,
      "byteOffset": 2097024,
      "componentType": 5126,
      "count": 65532,
      "max": [
        0.9984243512153625,
        0.9999906420707703,
        0.9999884366989136,
        1.0
      ],
      "min": [
        -0.9999964237213135,
        -0.9999951124191284,
        -0.9999944567680359,
        -1.0
      ],
      "type": "VEC4"
    },
    {
      "bufferView": 1,
      "byteOffset": 1048512,
      "componentType": 5126,
      "count": 65532,
      "max": [
        0.9524168968200684,
        0.9428362846374512
      ],
      "min": [
        0.0021106379572302103,
        0.0021106379572302103
      ],
      "type": "VEC2"
    },
    {
      "bufferView": 0,
      "byteOffset": 2668176,
      "componentType": 5125,
      "count": 348663,
      "type": "SCALAR"
    },
    {
      "bufferView": 2,
      "byteOffset": 4718304,
      "componentType": 5126,
      "count": 58707,
      "max": [
        2.633913040161133,
        6.3171162605285645,
        2.2272300720214844
      ],
      "min": [
        -3.917062520980835,
        -0.2824249863624573,
        -2.833430051803589
      ],
      "type": "VEC3"
    },
    {
      "bufferView": 2,
      "byteOffset": 5422788,
      "componentType": 5126,
      "count": 58707,
      "max": [
        0.9999802112579346,
        0.9996201992034912,
        0.999998927116394
      ],
      "min": [
        -0.9999998807907104,
        -0.9999840259552002,
        -0.9999952912330627
      ],
      "type": "VEC3"
    },
    {
      "bufferView": 3,
      "byteOffset": 3145536,
      "componentType": 5126,
      "count": 58707,
      "max": [
        0.9999115467071533,
        0.9999447464942932,
        0.9999852776527405,
        1.0
      ],
      "min": [
        -0.9999483227729797,
        -0.9999951124191284,
        -0.9999944567680359,
        -1.0
      ],
      "type": "VEC4"
    },
    {
      "bufferView": 1,
      "byteOffset": 1572768,
      "componentType": 5126,
      "count": 58707,
      "max": [
        0.9932671785354614,
        0.997807502746582
      ],
      "min": [
        0.0021106379572302103,
        0.0021106379572302103
      ],
      "type": "VEC2"
    },
    {
      "bufferView": 0,
      "byteOffset": 4062828,
      "componentType": 5125,
      "count": 183975,
      "type": "SCALAR"
    }
  ],
  "asset": {
    "extras": {
      "author": "SomeKevin (https://sketchfab.com/SomeKevin)",
      "license": "CC-BY-4.0 (http://creativecommons.org/licenses/by/4.0/)",
      "source": "https://sketchfab.com/3d-models/old-tree-5ce2a40a69b542c789c030bde6c33f18",
      "title": "Old Tree"
    },
    "generator": "Sketchfab-12.67.0",
    "version": "2.0"
  },
  "bufferViews": [
    {
      "buffer": 0,
      "byteLength": 4798728,
      "name": "floatBufferViews",
      "target": 34963
    },
    {
      "buffer": 0,
      "byteLength": 2042424,
      "byteOffset": 4798728,
      "byteStride": 8,
      "name": "floatBufferViews",
      "target": 34962
    },
    {
      "buffer": 0,
      "byteLength": 6127272,
      "byteOffset": 6841152,
      "byteStride": 12,
      "name": "floatBufferViews",
      "target": 34962
    },
    {
      "buffer": 0,
      "byteLength": 4084848,
      "byteOffset": 12968424,
      "byteStride": 16,
      "name": "floatBufferViews",
      "target": 34962
    }
  ],
  "buffers": [
    {
      "byteLength": 17053272,
      "uri": "scene.bin"
    }
  ],
  "images": [
    {
      "uri": "textures/Default_OBJ_baseColor.png"
    },
    {
      "uri": "textures/Default_OBJ_metallicRoughness.png"
    },
    {
      "uri": "textures/Default_OBJ_normal.png"
    }
  ],
  "materials": [
    {
      "doubleSided": true,
      "name": "Default_OBJ",
      "normalTexture": {
        "index": 2
      },
      "pbrMetallicRoughness": {
        "baseColorTexture": {
          "index": 0
        },
        "metallicFactor": 0.0,
        "metallicRoughnessTexture": {
          "index": 1
        }
      }
    }
  ],
  "meshes": [
    {
      "name": "essbrauchtneatsnteontedigend_Default OBJ_0",
      "primitives": [
        {
          "attributes": {
            "NORMAL": 1,
            "POSITION": 0,
            "TANGENT": 2,
            "TEXCOORD_0": 3
          },
          "indices": 4,
          "material": 0,
          "mode": 4
        }
      ]
    },
    {
      "name": "essbrauchtneatsnteontedigend_Default OBJ_0",
      "primitives": [
        {
          "attributes": {
            "NORMAL": 6,
            "POSITION": 5,
            "TANGENT": 7,
            "TEXCOORD_0": 8
          },
          "indices": 9,
          "material": 0,
          "mode": 4
        }
      ]
    },
    {
      "name": "essbrauchtneatsnteontedigend_Default OBJ_0",
      "primitives": [
        {
          "attributes": {
            "NORMAL": 11,
            "POSITION": 10,
            "TANGENT": 12,
            "TEXCOORD_0": 13
          },
          "indices": 14,
          "material": 0,
          "mode": 4
        }
      ]
    },
    {
      "name": "essbrauchtneatsnteontedigend_Default OBJ_0",
      "primitives": [
        {
          "attributes": {
            "NORMAL": 16,
            "POSITION": 15,
            "TANGENT": 17,
            "TEXCOORD_0": 18
          },
          "indices": 19,
          "material": 0,
          "mode": 4
        }
      ]
    }
  ],
  "nodes": [
    {
      "children": [
        1
      ],
      "matrix": [
        1.0,
        0.0,
        0.0,
        0.0,
        0.0,
        2.220446049250313e-16,
        -1.0,
        0.0,
        0.0,
        1.0,
        2.220446049250313e-16,
        0.0,
        0.0,
        0.0,
        0.0,
        1.0
      ],
      "name": "Sketchfab_model"
    },
    {
      "children": [
        2
      ],
      "matrix": [
        0.009999999776482582,
        0.0,
        0.0,
        0.0,
        0.0,
        0.0,
        0.009999999776482582,
        0.0,
        0.0,
        -0.009999999776482582,
        0.0,
        0.0,
        0.0,
        0.0,
        0.0,
        1.0
      ],
      "name": "ae4896be47bf436c9e7682d83b5290e3.fbx"
    },
    {
      "children": [
        3
      ],
      "name": "RootNode"
    },
    {
      "children": [
        4,
        5,
        6,
        7
      ],
      "matrix": [
        100.0,
        0.0,
        0.0,
        0.0,
        0.0,
        99.99999999999866,
        1.6292067073209114e-05,
        0.0,
        0.0,
        -1.6292067073209114e-05,
        99.99999999999866,
        0.0,
        0.0,
        0.0,
        0.0,
        1.0
      ],
      "name": "essbrauchtneatsnteontedigend"
    },
    {
      "mesh": 0,
      "name": "essbrauchtneatsnteontedigend_Default OBJ_0"
    },
    {
      "mesh": 1,
      "name": "essbrauchtneatsnteontedigend_Default OBJ_0"
    },
    {
      "mesh": 2,
      "name": "essbrauchtneatsnteontedigend_Default OBJ_0"
    },
    {
      "mesh": 3,
      "name": "essbrauchtneatsnteontedigend_Default OBJ_0"
    }
  ],
  "samplers": [
    {
      "magFilter": 9729,
      "minFilter": 9987,
      "wrapS": 10497,
      "wrapT": 10497
    }
  ],
  "scene": 0,
  "scenes": [
    {
      "name": "Sketchfab_Scene",
      "nodes": [
        0
      ]
    }
  ],
  "textures": [
    {
      "sampler": 0,
      "source": 0
    },
    {
      "sampler": 0,
      "source": 1
    },
    {
      "sampler": 0,
      "source": 2
    }
  ]
}
