{
  "accessors": [
    {
      "bufferView": 2,
      "componentType": 5126,
      "count": 31098,
      "max": [
        -2.600189208984375,
        20.000030517578125,
        0.5
      ],
      "min": [
        -21.286041259765625,
        -20.000015258789063,
        0.0
      ],
      "type": "VEC3"
    },
    {
      "bufferView": 2,
      "byteOffset": 373176,
      "componentType": 5126,
      "count": 31098,
      "max": [
        1.0,
        1.0,
        1.0
      ],
      "min": [
        -1.0,
        -1.0,
        -1.0
      ],
      "type": "VEC3"
    },
    {
      "bufferView": 1,
      "componentType": 5126,
      "count": 31098,
      "max": [
        0.9719600677490234,
        1.0
      ],
      "min": [
        0.027922362089157104,
        0.0
      ],
      "type": "VEC2"
    },
    {
      "bufferView": 0,
      "componentType": 5125,
      "count": 68688,
      "type": "SCALAR"
    },
    {
      "bufferView": 2,
      "byteOffset": 746352,
      "componentType": 5126,
      "count": 3498,
      "max": [
        284.04998779296875,
        65.20000457763672,
        6.0
      ],
      "min": [
        -284.0500183105469,
        -4.989062786102295,
        0.0
      ],
      "type": "VEC3"
    },
    {
      "bufferView": 2,
      "byteOffset": 788328,
      "componentType": 5126,
      "count": 3498,
      "max": [
        1.0,
        1.0,
        1.0
      ],
      "min": [
        -1.0,
        -1.0,
        -1.0
      ],
      "type": "VEC3"
    },
    {
      "bufferView": 0,
      "byteOffset": 274752,
      "componentType": 5125,
      "count": 9936,
      "type": "SCALAR"
    },
    {
      "bufferView": 2,
      "byteOffset": 830304,
      "componentType": 5126,
      "count": 65532,
      "max": [
        9.342926025390625,
        20.000030517578125,
        0.10000000149011612
      ],
      "min": [
        -9.342926025390625,
        -20.000015258789063,
        0.0
      ],
      "type": "VEC3"
    },
    {
      "bufferView": 2,
      "byteOffset": 1616688,
      "componentType": 5126,
      "count": 65532,
      "max": [
        1.0,
        1.0,
        1.0
      ],
      "min": [
        -1.0,
        -1.0,
        -1.0
      ],
      "type": "VEC3"
    },
    {
      "bufferView": 0,
      "byteOffset": 314496,
      "componentType": 5125,
      "count": 144240,
      "type": "SCALAR"
    },
    {
      "bufferView": 2,
      "byteOffset": 2403072,
      "componentType": 5126,
      "count": 418,
      "max": [
        2.4136962890625,
        13.247802734375,
        0.0
      ],
      "min": [
        -4.41943359375,
        -15.331253051757813,
        0.0
      ],
      "type": "VEC3"
    },
    {
      "bufferView": 2,
      "byteOffset": 2408088,
      "componentType": 5126,
      "count": 418,
      "max": [
        0.0,
        0.0,
        -1.0
      ],
      "min": [
        0.0,
        0.0,
        -1.0
      ],
      "type": "VEC3"
    },
    {
      "bufferView": 0,
      "byteOffset": 891456,
      "componentType": 5125,
      "count": 1224,
      "type": "SCALAR"
    }
  ],
  "asset": {
    "extras": {
      "author": "DTA DESIGN STUDIO (https://sketchfab.com/dtadesignstudio)",
      "license": "CC-BY-4.0 (http://creativecommons.org/licenses/by/4.0/)",
      "source": "https://sketchfab.com/3d-models/squid-game-jewerly-0ce9012ee7ed416aa1290467d154e2bd",
      "title": "SQUID GAME JEWERLY"
    },
    "generator": "Sketchfab-12.66.0",
    "version": "2.0"
  },
  "bufferViews": [
    {
      "buffer": 0,
      "byteLength": 896352,
      "name": "floatBufferViews",
      "target": 34963
    },
    {
      "buffer": 0,
      "byteLength": 248784,
      "byteOffset": 896352,
      "byteStride": 8,
      "name": "floatBufferViews",
      "target": 34962
    },
    {
      "buffer": 0,
      "byteLength": 2413104,
      "byteOffset": 1145136,
      "byteStride": 12,
      "name": "floatBufferViews",
      "target": 34962
    }
  ],
  "buffers": [
    {
      "byteLength": 3558240,
      "uri": "scene.bin"
    }
  ],
  "extensionsUsed": [
    "KHR_materials_clearcoat"
  ],
  "materials": [
    {
      "doubleSided": true,
      "extensions": {
        "KHR_materials_clearcoat": {
          "clearcoatFactor": 1.0,
          "clearcoatRoughnessFactor": 0.04
        }
      },
      "name": "Aluminium_Yellow_Anodized",
      "pbrMetallicRoughness": {
        "baseColorFactor": [
          0.7758222183174236,
          0.4178850708481373,
          0.36130677978350967,
          1.0
        ],
        "metallicFactor": 0.5,
        "roughnessFactor": 0.0
      }
    }
  ],
  "meshes": [
    {
      "name": "jewelry_Aluminium Yellow Anodized_0",
      "primitives": [
        {
          "attributes": {
            "NORMAL": 1,
            "POSITION": 0,
            "TEXCOORD_0": 2
          },
          "indices": 3,
          "material": 0,
          "mode": 4
        }
      ]
    },
    {
      "name": "Text_Aluminium Yellow Anodized_0",
      "primitives": [
        {
          "attributes": {
            "NORMAL": 5,
            "POSITION": 4
          },
          "indices": 6,
          "material": 0,
          "mode": 4
        }
      ]
    },
    {
      "name": "edge_Aluminium Yellow Anodized_0",
      "primitives": [
        {
          "attributes": {
            "NORMAL": 8,
            "POSITION": 7
          },
          "indices": 9,
          "material": 0,
          "mode": 4
        }
      ]
    },
    {
      "name": "edge_Aluminium Yellow Anodized_0",
      "primitives": [
        {
          "attributes": {
            "NORMAL": 11,
            "POSITION": 10
          },
          "indices": 12,
          "material": 0,
          "mode": 4
        }
      ]
    }
  ],
  "nodes": [
    {
      "children": [
        1
      ],
      "matrix": [
        1.0,
        0.0,
        0.0,
        0.0,
        0.0,
        2.220446049250313e-16,
        -1.0,
        0.0,
        0.0,
        1.0,
        2.220446049250313e-16,
        0.0,
        0.0,
        0.0,
        0.0,
        1.0
      ],
      "name": "Sketchfab_model"
    },
    {
      "children": [
        2
      ],
      "matrix": [
        0.0010000000474974513,
        0.0,
        0.0,
        0.0,
        0.0,
        0.0,
        0.0010000000474974513,
        0.0,
        0.0,
        -0.0010000000474974513,
        0.0,
        0.0,
        0.0,
        0.0,
        0.0,
        1.0
      ],
      "name": "2b3361799e7e421a930c235236e49809.fbx"
    },
    {
      "children": [
        3,
        6,
        8
      ],
      "name": "RootNode"
    },
    {
      "children": [
        4
      ],
      "matrix": [
        1.0,
        0.0,
        0.0,
        0.0,
        0.0,
        2.220446049250313e-16,
        -1.0,
        0.0,
        0.0,
        1.0,
        2.220446049250313e-16,
        0.0,
        -0.04079389572143555,
        0.049579620361328125,
        -0.0435028076171875,
        1.0
      ],
      "name": "jewelry"
    },
    {
      "children": [
        5
      ],
      "matrix": [
        1.0,
        0.0,
        -0.0,
        0.0,
        0.0,
        1.0,
        0.0,
        0.0,
        0.0,
        0.0,
        1.0,
        0.0,
        11.943115234375,
        0.0,
        0.0,
        1.0
      ],
      "name": "Object_4"
    },
    {
      "mesh": 0,
      "name": "jewelry_Aluminium Yellow Anodized_0"
    },
    {
      "children": [
        7
      ],
      "matrix": [
        6.294295078957602e-10,
        7.993422109290735e-19,
        -0.014399669133126724,
        0.0,
        -0.014399669133126724,
        1.598684421858147e-18,
        -6.294295086951024e-10,
        0.0,
        2.3980266327872206e-18,
        0.014399669133126736,
        0.0,
        0.0,
        0.5111523866653442,
        0.5505170226097107,
        -0.8089085817337036,
        1.0
      ],
      "name": "Text"
    },
    {
      "mesh": 1,
      "name": "Text_Aluminium Yellow Anodized_0"
    },
    {
      "children": [
        9
      ],
      "matrix": [
        1.0,
        0.0,
        0.0,
        0.0,
        0.0,
        2.220446049250313e-16,
        -1.0,
        0.0,
        0.0,
        1.0,
        2.220446049250313e-16,
        0.0,
        0.0,
        0.0,
        0.0,
        1.0
      ],
      "name": "Block:block 2"
    },
    {
      "children": [
        10,
        11
      ],
      "matrix": [
        1.0,
        0.0,
        0.0,
        0.0,
        0.0,
        1.0,
        0.0,
        0.0,
        0.0,
        0.0,
        1.0,
        0.0,
        -0.040795326232910156,
        0.04350411891937256,
        0.5495791435241699,
        1.0
      ],
      "name": "edge"
    },
    {
      "mesh": 2,
      "name": "edge_Aluminium Yellow Anodized_0"
    },
    {
      "mesh": 3,
      "name": "edge_Aluminium Yellow Anodized_0"
    }
  ],
  "scene": 0,
  "scenes": [
    {
      "name": "Sketchfab_Scene",
      "nodes": [
        0
      ]
    }
  ]
}
