{
  "accessors": [
    {
      "bufferView": 2,
      "componentType": 5126,
      "count": 24488,
      "max": [
        0.40097784996032715,
        0.7353229522705078,
        0.5585890412330627
      ],
      "min": [
        -0.3116222620010376,
        -0.760676383972168,
        -0.5587018132209778
      ],
      "type": "VEC3"
    },
    {
      "bufferView": 2,
      "byteOffset": 293856,
      "componentType": 5126,
      "count": 24488,
      "max": [
        0.9975627660751343,
        1.0,
        1.0
      ],
      "min": [
        -0.9980499148368835,
        -1.0,
        -1.0
      ],
      "type": "VEC3"
    },
    {
      "bufferView": 1,
      "componentType": 5126,
      "count": 24488,
      "max": [
        1.7168699502944946,
        2.1886000633239746
      ],
      "min": [
        -0.4664260149002075,
        0.5997599959373474
      ],
      "type": "VEC2"
    },
    {
      "bufferView": 0,
      "componentType": 5125,
      "count": 41046,
      "type": "SCALAR"
    }
  ],
  "asset": {
    "extras": {
      "author": "PedroEdits (https://sketchfab.com/PedroEdits)",
      "license": "CC-BY-4.0 (http://creativecommons.org/licenses/by/4.0/)",
      "source": "https://sketchfab.com/3d-models/leader-mask-from-squid-game-tag-me-when-use-it-0e4993d9a0684d03b76644a5253c28a3",
      "title": "Leader mask from Squid Game (tag me when use it)"
    },
    "generator": "Sketchfab-12.67.0",
    "version": "2.0"
  },
  "bufferViews": [
    {
      "buffer": 0,
      "byteLength": 164184,
      "name": "floatBufferViews",
      "target": 34963
    },
    {
      "buffer": 0,
      "byteLength": 195904,
      "byteOffset": 164184,
      "byteStride": 8,
      "name": "floatBufferViews",
      "target": 34962
    },
    {
      "buffer": 0,
      "byteLength": 587712,
      "byteOffset": 360088,
      "byteStride": 12,
      "name": "floatBufferViews",
      "target": 34962
    }
  ],
  "buffers": [
    {
      "byteLength": 947800,
      "uri": "scene.bin"
    }
  ],
  "materials": [
    {
      "doubleSided": true,
      "name": "Workspace1Mtl",
      "pbrMetallicRoughness": {
        "baseColorFactor": [
          0.00258583,
          0.00258583,
          0.00258583,
          1.0
        ],
        "metallicFactor": 0.0
      }
    }
  ],
  "meshes": [
    {
      "name": "FrontMan mask_Workspace1Mtl_0",
      "primitives": [
        {
          "attributes": {
            "NORMAL": 1,
            "POSITION": 0,
            "TEXCOORD_0": 2
          },
          "indices": 3,
          "material": 0,
          "mode": 4
        }
      ]
    }
  ],
  "nodes": [
    {
      "children": [
        1
      ],
      "matrix": [
        0.9978068470954895,
        1.46977934557342e-17,
        -0.06619297713041306,
        0.0,
        -0.06619297713041306,
        2.215576271548091e-16,
        -0.9978068470954895,
        0.0,
        0.0,
        1.0,
        2.220446049250313e-16,
        0.0,
        -0.003192743519321084,
        1.3246950773193833e-11,
        0.03743404895067215,
        1.0
      ],
      "name": "Sketchfab_model"
    },
    {
      "children": [
        2
      ],
      "matrix": [
        0.009999999776482582,
        0.0,
        0.0,
        0.0,
        0.0,
        0.0,
        0.009999999776482582,
        0.0,
        0.0,
        -0.009999999776482582,
        0.0,
        0.0,
        0.0,
        0.0,
        0.0,
        1.0
      ],
      "name": "63d9f393d51c408286aee2bb10aeb66f.fbx"
    },
    {
      "children": [
        3,
        6,
        8
      ],
      "name": "RootNode"
    },
    {
      "children": [
        4
      ],
      "matrix": [
        -29.08647719990347,
        -5.518906457566863,
        -95.51711910171437,
        0.0,
        56.63930913109449,
        79.46723428563203,
        -21.83912397841966,
        0.0,
        77.11008775993375,
        -60.45246356562044,
        -19.98834696773717,
        0.0,
        407.6245422363281,
        590.38623046875,
        -100.54539489746094,
        1.0
      ],
      "name": "Light"
    },
    {
      "children": [
        5
      ],
      "matrix": [
        1.0,
        0.0,
        0.0,
        0.0,
        0.0,
        2.220446049250313e-16,
        1.0,
        0.0,
        0.0,
        -1.0,
        2.220446049250313e-16,
        0.0,
        0.0,
        0.0,
        0.0,
        1.0
      ],
      "name": "Object_4"
    },
    {
      "name": "Object_5"
    },
    {
      "children": [
        7
      ],
      "matrix": [
        -65.15581009765468,
        -44.527143038140764,
        -61.41704928909654,
        0.0,
        -32.40135466989878,
        89.5395708958271,
        -30.542085476036902,
        0.0,
        68.59207001076176,
        1.2755314797120858e-05,
        -72.76761921184276,
        0.0,
        735.88916015625,
        495.8309326171875,
        692.5791015625,
        1.0
      ],
      "name": "Camera"
    },
    {
      "name": "Object_7"
    },
    {
      "children": [
        9
      ],
      "matrix": [
        476.3978576660156,
        0.0,
        0.0,
        0.0,
        0.0,
        476.39785766600926,
        7.761506527629928e-05,
        0.0,
        0.0,
        -7.761506527629928e-05,
        476.39785766600926,
        0.0,
        35.04648208618164,
        120.78685760498047,
        6.716358661651611,
        1.0
      ],
      "name": "FrontMan mask"
    },
    {
      "mesh": 0,
      "name": "FrontMan mask_Workspace1Mtl_0"
    }
  ],
  "scene": 0,
  "scenes": [
    {
      "name": "Sketchfab_Scene",
      "nodes": [
        0
      ]
    }
  ]
}
