{
  "accessors": [
    {
      "bufferView": 2,
      "componentType": 5126,
      "count": 45102,
      "max": [
        3.8318610191345215,
        1.005133032798767,
        11.625831604003906
      ],
      "min": [
        -3.8318610191345215,
        -1.0616300106048584,
        -0.0008750000270083547
      ],
      "type": "VEC3"
    },
    {
      "bufferView": 2,
      "byteOffset": 541224,
      "componentType": 5126,
      "count": 45102,
      "max": [
        0.9999995231628418,
        0.9999890327453613,
        0.9999988079071045
      ],
      "min": [
        -0.9999995231628418,
        -1.0,
        -1.0
      ],
      "type": "VEC3"
    },
    {
      "bufferView": 1,
      "componentType": 5126,
      "count": 45102,
      "max": [
        0.9875079989433289,
        0.9891980290412903
      ],
      "min": [
        0.01080199982970953,
        0.01080199982970953
      ],
      "type": "VEC2"
    },
    {
      "bufferView": 0,
      "componentType": 5125,
      "count": 253728,
      "type": "SCALAR"
    }
  ],
  "asset": {
    "extras": {
      "author": "2ad700ss (https://sketchfab.com/2ad700ss)",
      "license": "CC-BY-4.0 (http://creativecommons.org/licenses/by/4.0/)",
      "source": "https://sketchfab.com/3d-models/red-soldier-from-squid-game-111366aed5b547c5add63937cc4b99e2",
      "title": "Red Soldier FROM SQUID GAME"
    },
    "generator": "Sketchfab-12.67.0",
    "version": "2.0"
  },
  "bufferViews": [
    {
      "buffer": 0,
      "byteLength": 1014912,
      "name": "floatBufferViews",
      "target": 34963
    },
    {
      "buffer": 0,
      "byteLength": 360816,
      "byteOffset": 1014912,
      "byteStride": 8,
      "name": "floatBufferViews",
      "target": 34962
    },
    {
      "buffer": 0,
      "byteLength": 1082448,
      "byteOffset": 1375728,
      "byteStride": 12,
      "name": "floatBufferViews",
      "target": 34962
    }
  ],
  "buffers": [
    {
      "byteLength": 2458176,
      "uri": "scene.bin"
    }
  ],
  "images": [
    {
      "uri": "textures/Red_soldier_baseColor.png"
    }
  ],
  "materials": [
    {
      "doubleSided": true,
      "name": "Red_soldier",
      "pbrMetallicRoughness": {
        "baseColorTexture": {
          "index": 0
        },
        "metallicFactor": 0.0,
        "roughnessFactor": 0.8992134412839956
      }
    }
  ],
  "meshes": [
    {
      "name": "Object_0",
      "primitives": [
        {
          "attributes": {
            "NORMAL": 1,
            "POSITION": 0,
            "TEXCOORD_0": 2
          },
          "indices": 3,
          "material": 0,
          "mode": 4
        }
      ]
    }
  ],
  "nodes": [
    {
      "children": [
        1
      ],
      "matrix": [
        1.0,
        0.0,
        0.0,
        0.0,
        0.0,
        2.220446049250313e-16,
        -1.0,
        0.0,
        0.0,
        1.0,
        2.220446049250313e-16,
        0.0,
        0.0,
        0.0,
        0.0,
        1.0
      ],
      "name": "Sketchfab_model"
    },
    {
      "children": [
        2
      ],
      "name": "Red_soldier.obj.cleaner.materialmerger.gles"
    },
    {
      "mesh": 0,
      "name": "Object_2"
    }
  ],
  "samplers": [
    {
      "magFilter": 9729,
      "minFilter": 9987,
      "wrapS": 10497,
      "wrapT": 10497
    }
  ],
  "scene": 0,
  "scenes": [
    {
      "name": "Sketchfab_Scene",
      "nodes": [
        0
      ]
    }
  ],
  "textures": [
    {
      "sampler": 0,
      "source": 0
    }
  ]
}
