{
  "accessors": [
    {
      "bufferView": 2,
      "componentType": 5126,
      "count": 65532,
      "max": [
        120.39695739746094,
        150.7728271484375,
        229.60794067382813
      ],
      "min": [
        0.97149658203125,
        4.31764030456543,
        0.0
      ],
      "type": "VEC3"
    },
    {
      "bufferView": 2,
      "byteOffset": 786384,
      "componentType": 5126,
      "count": 65532,
      "max": [
        1.0,
        1.0,
        1.0
      ],
      "min": [
        -0.9996083378791809,
        -1.0,
        -1.0
      ],
      "type": "VEC3"
    },
    {
      "bufferView": 1,
      "componentType": 5126,
      "count": 65532,
      "max": [
        0.9577829837799072,
        0.998583972454071
      ],
      "min": [
        0.00903400033712387,
        0.00023600000713486224
      ],
      "type": "VEC2"
    },
    {
      "bufferView": 0,
      "componentType": 5125,
      "count": 351366,
      "type": "SCALAR"
    },
    {
      "bufferView": 2,
      "byteOffset": 1572768,
      "componentType": 5126,
      "count": 65532,
      "max": [
        120.26901245117188,
        151.3018341064453,
        228.06163024902344
      ],
      "min": [
        2.0529022216796875,
        64.94841003417969,
        0.942901611328125
      ],
      "type": "VEC3"
    },
    {
      "bufferView": 2,
      "byteOffset": 2359152,
      "componentType": 5126,
      "count": 65532,
      "max": [
        1.0,
        0.9999999403953552,
        0.9998722672462463
      ],
      "min": [
        -0.9835484027862549,
        -0.9683244824409485,
        -0.9981685280799866
      ],
      "type": "VEC3"
    },
    {
      "bufferView": 1,
      "byteOffset": 524256,
      "componentType": 5126,
      "count": 65532,
      "max": [
        0.3035550117492676,
        0.2602050006389618
      ],
      "min": [
        0.0012150000547990203,
        0.0014440000522881746
      ],
      "type": "VEC2"
    },
    {
      "bufferView": 0,
      "byteOffset": 1405464,
      "componentType": 5125,
      "count": 315147,
      "type": "SCALAR"
    },
    {
      "bufferView": 2,
      "byteOffset": 3145536,
      "componentType": 5126,
      "count": 65532,
      "max": [
        111.40972900390625,
        151.3018341064453,
        227.78475952148438
      ],
      "min": [
        0.100494384765625,
        38.09368896484375,
        0.0782928466796875
      ],
      "type": "VEC3"
    },
    {
      "bufferView": 2,
      "byteOffset": 3931920,
      "componentType": 5126,
      "count": 65532,
      "max": [
        0.9223207235336304,
        1.0,
        0.9442805051803589
      ],
      "min": [
        -0.9998900294303894,
        -0.9934270977973938,
        -0.9999275803565979
      ],
      "type": "VEC3"
    },
    {
      "bufferView": 1,
      "byteOffset": 1048512,
      "componentType": 5126,
      "count": 65532,
      "max": [
        0.643921971321106,
        0.5227599740028381
      ],
      "min": [
        0.02571900002658367,
        0.0
      ],
      "type": "VEC2"
    },
    {
      "bufferView": 0,
      "byteOffset": 2666052,
      "componentType": 5125,
      "count": 307410,
      "type": "SCALAR"
    },
    {
      "bufferView": 2,
      "byteOffset": 4718304,
      "componentType": 5126,
      "count": 65532,
      "max": [
        119.43846130371094,
        151.23202514648438,
        229.4458770751953
      ],
      "min": [
        0.100494384765625,
        2.9190807342529297,
        0.7635040283203125
      ],
      "type": "VEC3"
    },
    {
      "bufferView": 2,
      "byteOffset": 5504688,
      "componentType": 5126,
      "count": 65532,
      "max": [
        0.9749040603637695,
        0.9999972581863403,
        0.9999989867210388
      ],
      "min": [
        -1.0,
        -0.9999975562095642,
        -0.9841532111167908
      ],
      "type": "VEC3"
    },
    {
      "bufferView": 1,
      "byteOffset": 1572768,
      "componentType": 5126,
      "count": 65532,
      "max": [
        0.5077840089797974,
        0.7824900150299072
      ],
      "min": [
        0.011578000150620937,
        0.26456600427627563
      ],
      "type": "VEC2"
    },
    {
      "bufferView": 0,
      "byteOffset": 3895692,
      "componentType": 5125,
      "count": 300555,
      "type": "SCALAR"
    },
    {
      "bufferView": 2,
      "byteOffset": 6291072,
      "componentType": 5126,
      "count": 65532,
      "max": [
        120.35649108886719,
        151.15072631835938,
        229.4458770751953
      ],
      "min": [
        1.7760009765625,
        0.4416999816894531,
        0.40570068359375
      ],
      "type": "VEC3"
    },
    {
      "bufferView": 2,
      "byteOffset": 7077456,
      "componentType": 5126,
      "count": 65532,
      "max": [
        1.0,
        0.9999999403953552,
        0.999991774559021
      ],
      "min": [
        -0.9993875622749329,
        -0.9885172247886658,
        -0.9999284744262695
      ],
      "type": "VEC3"
    },
    {
      "bufferView": 1,
      "byteOffset": 2097024,
      "componentType": 5126,
      "count": 65532,
      "max": [
        0.9878119826316833,
        0.9989960193634033
      ],
      "min": [
        0.012618999928236008,
        0.7014399766921997
      ],
      "type": "VEC2"
    },
    {
      "bufferView": 0,
      "byteOffset": 5097912,
      "componentType": 5125,
      "count": 297729,
      "type": "SCALAR"
    },
    {
      "bufferView": 2,
      "byteOffset": 7863840,
      "componentType": 5126,
      "count": 65532,
      "max": [
        120.16584777832031,
        149.94223022460938,
        229.6056671142578
      ],
      "min": [
        0.945404052734375,
        1.2722511291503906,
        0.538299560546875
      ],
      "type": "VEC3"
    },
    {
      "bufferView": 2,
      "byteOffset": 8650224,
      "componentType": 5126,
      "count": 65532,
      "max": [
        0.9997892379760742,
        0.9999995827674866,
        1.0
      ],
      "min": [
        -1.0,
        -0.9994202852249146,
        -1.0
      ],
      "type": "VEC3"
    },
    {
      "bufferView": 1,
      "byteOffset": 2621280,
      "componentType": 5126,
      "count": 65532,
      "max": [
        0.6380730271339417,
        0.9987930059432983
      ],
      "min": [
        0.0007009999826550484,
        0.8077830076217651
      ],
      "type": "VEC2"
    },
    {
      "bufferView": 0,
      "byteOffset": 6288828,
      "componentType": 5125,
      "count": 311286,
      "type": "SCALAR"
    },
    {
      "bufferView": 2,
      "byteOffset": 9436608,
      "componentType": 5126,
      "count": 65532,
      "max": [
        120.30986022949219,
        150.21913146972656,
        228.89219665527344
      ],
      "min": [
        0.0,
        1.2722511291503906,
        0.328704833984375
      ],
      "type": "VEC3"
    },
    {
      "bufferView": 2,
      "byteOffset": 10222992,
      "componentType": 5126,
      "count": 65532,
      "max": [
        1.0,
        0.9852416515350342,
        0.9998779296875
      ],
      "min": [
        -1.0,
        -0.9999756217002869,
        -1.0
      ],
      "type": "VEC3"
    },
    {
      "bufferView": 1,
      "byteOffset": 3145536,
      "componentType": 5126,
      "count": 65532,
      "max": [
        0.930903971195221,
        0.8476960062980652
      ],
      "min": [
        0.3007569909095764,
        0.527163028717041
      ],
      "type": "VEC2"
    },
    {
      "bufferView": 0,
      "byteOffset": 7533972,
      "componentType": 5125,
      "count": 285942,
      "type": "SCALAR"
    },
    {
      "bufferView": 2,
      "byteOffset": 11009376,
      "componentType": 5126,
      "count": 65532,
      "max": [
        119.71531677246094,
        149.38853454589844,
        228.84840393066406
      ],
      "min": [
        0.39170074462890625,
        0.0,
        7.4098968505859375
      ],
      "type": "VEC3"
    },
    {
      "bufferView": 2,
      "byteOffset": 11795760,
      "componentType": 5126,
      "count": 65532,
      "max": [
        0.9996669292449951,
        0.982222855091095,
        0.9999984502792358
      ],
      "min": [
        -0.9991207122802734,
        -1.0,
        -0.8833199739456177
      ],
      "type": "VEC3"
    },
    {
      "bufferView": 1,
      "byteOffset": 3669792,
      "componentType": 5126,
      "count": 65532,
      "max": [
        0.8816360235214233,
        0.7258949875831604
      ],
      "min": [
        0.002993999980390072,
        0.2735939919948578
      ],
      "type": "VEC2"
    },
    {
      "bufferView": 0,
      "byteOffset": 8677740,
      "componentType": 5125,
      "count": 299550,
      "type": "SCALAR"
    },
    {
      "bufferView": 2,
      "byteOffset": 12582144,
      "componentType": 5126,
      "count": 36611,
      "max": [
        118.05419921875,
        146.77943420410156,
        228.89219665527344
      ],
      "min": [
        0.01690673828125,
        0.4416999816894531,
        2.703399658203125
      ],
      "type": "VEC3"
    },
    {
      "bufferView": 2,
      "byteOffset": 13021476,
      "componentType": 5126,
      "count": 36611,
      "max": [
        0.9666129946708679,
        0.741078794002533,
        0.9996767640113831
      ],
      "min": [
        -0.9999971985816956,
        -0.9991129636764526,
        -0.952534556388855
      ],
      "type": "VEC3"
    },
    {
      "bufferView": 1,
      "byteOffset": 4194048,
      "componentType": 5126,
      "count": 36611,
      "max": [
        0.40398699045181274,
        0.5239830017089844
      ],
      "min": [
        0.2319220006465912,
        0.2719379961490631
      ],
      "type": "VEC2"
    },
    {
      "bufferView": 0,
      "byteOffset": 9875940,
      "componentType": 5125,
      "count": 166158,
      "type": "SCALAR"
    }
  ],
  "asset": {
    "extras": {
      "author": "Brad Short (https://sketchfab.com/dbshort)",
      "license": "CC-BY-4.0 (http://creativecommons.org/licenses/by/4.0/)",
      "source": "https://sketchfab.com/3d-models/reindeer-sculpture-6d176c7c6a5d4966a1e8adab14c5e723",
      "title": "Reindeer Sculpture"
    },
    "generator": "Sketchfab-12.67.0",
    "version": "2.0"
  },
  "bufferViews": [
    {
      "buffer": 0,
      "byteLength": 10540572,
      "name": "floatBufferViews",
      "target": 34963
    },
    {
      "buffer": 0,
      "byteLength": 4486936,
      "byteOffset": 10540572,
      "byteStride": 8,
      "name": "floatBufferViews",
      "target": 34962
    },
    {
      "buffer": 0,
      "byteLength": 13460808,
      "byteOffset": 15027508,
      "byteStride": 12,
      "name": "floatBufferViews",
      "target": 34962
    }
  ],
  "buffers": [
    {
      "byteLength": 28488316,
      "uri": "scene.bin"
    }
  ],
  "images": [
    {
      "uri": "textures/default_baseColor.png"
    }
  ],
  "materials": [
    {
      "doubleSided": true,
      "name": "default",
      "pbrMetallicRoughness": {
        "baseColorTexture": {
          "index": 0
        },
        "metallicFactor": 0.56,
        "roughnessFactor": 0.6
      }
    }
  ],
  "meshes": [
    {
      "name": "Object_0",
      "primitives": [
        {
          "attributes": {
            "NORMAL": 1,
            "POSITION": 0,
            "TEXCOORD_0": 2
          },
          "indices": 3,
          "material": 0,
          "mode": 4
        }
      ]
    },
    {
      "name": "Object_1",
      "primitives": [
        {
          "attributes": {
            "NORMAL": 5,
            "POSITION": 4,
            "TEXCOORD_0": 6
          },
          "indices": 7,
          "material": 0,
          "mode": 4
        }
      ]
    },
    {
      "name": "Object_2",
      "primitives": [
        {
          "attributes": {
            "NORMAL": 9,
            "POSITION": 8,
            "TEXCOORD_0": 10
          },
          "indices": 11,
          "material": 0,
          "mode": 4
        }
      ]
    },
    {
      "name": "Object_3",
      "primitives": [
        {
          "attributes": {
            "NORMAL": 13,
            "POSITION": 12,
            "TEXCOORD_0": 14
          },
          "indices": 15,
          "material": 0,
          "mode": 4
        }
      ]
    },
    {
      "name": "Object_4",
      "primitives": [
        {
          "attributes": {
            "NORMAL": 17,
            "POSITION": 16,
            "TEXCOORD_0": 18
          },
          "indices": 19,
          "material": 0,
          "mode": 4
        }
      ]
    },
    {
      "name": "Object_5",
      "primitives": [
        {
          "attributes": {
            "NORMAL": 21,
            "POSITION": 20,
            "TEXCOORD_0": 22
          },
          "indices": 23,
          "material": 0,
          "mode": 4
        }
      ]
    },
    {
      "name": "Object_6",
      "primitives": [
        {
          "attributes": {
            "NORMAL": 25,
            "POSITION": 24,
            "TEXCOORD_0": 26
          },
          "indices": 27,
          "material": 0,
          "mode": 4
        }
      ]
    },
    {
      "name": "Object_7",
      "primitives": [
        {
          "attributes": {
            "NORMAL": 29,
            "POSITION": 28,
            "TEXCOORD_0": 30
          },
          "indices": 31,
          "material": 0,
          "mode": 4
        }
      ]
    },
    {
      "name": "Object_8",
      "primitives": [
        {
          "attributes": {
            "NORMAL": 33,
            "POSITION": 32,
            "TEXCOORD_0": 34
          },
          "indices": 35,
          "material": 0,
          "mode": 4
        }
      ]
    }
  ],
  "nodes": [
    {
      "children": [
        1
      ],
      "matrix": [
        0.004744125995784998,
        0.0,
        0.0,
        0.0,
        0.0,
        1.0534075824486506e-18,
        -0.004744125995784998,
        0.0,
        0.0,
        0.004744125995784998,
        1.0534075824486506e-18,
        0.0,
        0.0,
        0.0,
        0.0,
        1.0
      ],
      "name": "Sketchfab_model"
    },
    {
      "children": [
        2,
        3,
        4,
        5,
        6,
        7,
        8,
        9,
        10
      ],
      "matrix": [
        1.0,
        0.0,
        0.0,
        0.0,
        0.0,
        1.0,
        0.0,
        0.0,
        0.0,
        0.0,
        1.0,
        0.0,
        -128.2397003173828,
        17.32366943359375,
        -145.535400390625,
        1.0
      ],
      "name": "deer_lowpoly.obj.cleaner.gles"
    },
    {
      "mesh": 0,
      "name": "Object_2"
    },
    {
      "mesh": 1,
      "name": "Object_3"
    },
    {
      "mesh": 2,
      "name": "Object_4"
    },
    {
      "mesh": 3,
      "name": "Object_5"
    },
    {
      "mesh": 4,
      "name": "Object_6"
    },
    {
      "mesh": 5,
      "name": "Object_7"
    },
    {
      "mesh": 6,
      "name": "Object_8"
    },
    {
      "mesh": 7,
      "name": "Object_9"
    },
    {
      "mesh": 8,
      "name": "Object_10"
    }
  ],
  "samplers": [
    {
      "magFilter": 9729,
      "minFilter": 9987,
      "wrapS": 10497,
      "wrapT": 10497
    }
  ],
  "scene": 0,
  "scenes": [
    {
      "name": "Sketchfab_Scene",
      "nodes": [
        0
      ]
    }
  ],
  "textures": [
    {
      "sampler": 0,
      "source": 0
    }
  ]
}
